<?xml version="1.0" encoding="utf-8"?>
<!-- Generator: Adobe Illustrator 21.1.0, SVG Export Plug-In . SVG Version: 6.00 Build 0)  -->
<svg version="1.1" xmlns="http://www.w3.org/2000/svg" xmlns:xlink="http://www.w3.org/1999/xlink" id="boulder" x="0px" y="0px"
	 viewBox="0 0 107.8 107.8" style="enable-background:new 0 0 107.8 107.8;" xml:space="preserve">
<style type="text/css">
	.st0{fill:#707272;}
	.st1{fill:#CFCFCE;}
	.st2{fill:#DEDFE0;}
</style>
<polygon id="boulder-bg" class="st0" points="31.2,0 0,32.2 0,76.5 31.2,107.8 75.8,107.8 107.8,76 107.8,32.2 76,0 "/>
<path id="rockface-sides" class="st1" d="M36.5,5.7h34.3l-9.2,22.8H46.2L36.5,5.7z M66.3,30.2l11,11l22.6-9.7L75.6,7.2L66.3,30.2z
	 M79.1,45.9v15.5l22.8,9.2V36.2L79.1,45.9z M77.2,65.9l-11,11l9.7,22.6l24.3-24.3L77.2,65.9z M61.7,78.9H46.2L37,101.7h34.3
	L61.7,78.9z M41.3,77.2l-11-11L7.7,75.9L32,100.2L41.3,77.2z M28.4,61.4V45.9L5.5,36.7V71L28.4,61.4z M30.2,40.8l11-11L31.5,7.2
	L7.3,31.5L30.2,40.8z"/>
<polygon id="rockface-mid" class="st2" points="45.2,33.5 62.5,33.5 74.7,45.7 74.7,63.2 62.7,74.7 45.2,74.7 33.2,62.7 33.2,44.8
	"/>
</svg>
