<?xml version="1.0" encoding="utf-8"?>
<!-- Generator: Adobe Illustrator 21.1.0, SVG Export Plug-In . SVG Version: 6.00 Build 0)  -->
<svg version="1.1" id="hive" xmlns="http://www.w3.org/2000/svg" xmlns:xlink="http://www.w3.org/1999/xlink" x="0px" y="0px"
	 viewBox="0 0 103.5 103.5" style="enable-background:new 0 0 103.5 103.5;" xml:space="preserve">
<style type="text/css">
	.st0{fill:#96334F;}
	.st1{fill:#F9CB5A;}
	.st2{fill:#292433;}
	.st3{fill:#E54235;}
</style>
<circle id="bug-red-bg" class="st0" cx="51.7" cy="51.7" r="51.7"/>
<circle id="bug-yellow-bg" class="st1" cx="51.7" cy="51.7" r="44.5"/>
<path id="bug-black-head" class="st2" d="M51.7,13c0,0-15.4,0.1-24.8,8.8C21.2,27.1,17.7,35,17.7,35h66.8c0,0-3.1-8.5-9.1-13.7
	C65.2,12.2,51.7,13,51.7,13z"/>
<path id="bug-main-red" class="st3" d="M15.5,39.3h71.1c0,0,6.7,15.2-2.1,32S60,89.8,51.1,89.6c-8.9-0.2-24.4-4.4-32.2-17.7
	C10.5,57.6,13.8,46.7,15.5,39.3z"/>
<path id="bug-dots" class="st2" d="M61.6,51.7c0,5-4,9-9,9s-9-4-9-9s4-9,9-9S61.6,46.8,61.6,51.7z M70.1,61.2
	c-4.3,0-7.9,3.5-7.9,7.9c0,4.3,3.5,7.9,7.9,7.9c4.3,0,7.9-3.5,7.9-7.9C78,64.7,74.4,61.2,70.1,61.2z M37.1,61.2
	c-4.3,0-7.9,3.5-7.9,7.9c0,4.3,3.5,7.9,7.9,7.9s7.9-3.5,7.9-7.9C45,64.7,41.4,61.2,37.1,61.2z"/>
</svg>
