<?xml version="1.0" encoding="utf-8"?>
<!-- Generator: Adobe Illustrator 21.1.0, SVG Export Plug-In . SVG Version: 6.00 Build 0)  -->
<svg version="1.1" id="fog" xmlns="http://www.w3.org/2000/svg" xmlns:xlink="http://www.w3.org/1999/xlink" x="0px" y="0px"
	 viewBox="0 0 95.5 83.9" style="enable-background:new 0 0 95.5 83.9;" xml:space="preserve">
<style type="text/css">
	.st0{fill:#434266;}
	.st1{fill:#9999CB;}
	.st2{fill:#FFFBF1;}
</style>
<path id="ghost-bg" class="st0" d="M30.3,0.2c0,0,26.2-2.5,44,9s23.9,27.5,20,45.9s-26.5,30.7-49,28.5S2.7,66.7,0.2,47.7
	s16.3-32.2,22.3-35.2s7.9-4.3,7.9-4.3L30.3,0.2z"/>
<path id="ghost-main" class="st1" d="M37.8,7c0,0,17.3-2.3,32.3,7.4S90.3,37.6,87,53.1c-3.3,15.5-22.3,25.9-41.3,24
	c-19-1.9-35.9-14.3-38-30.2s13.7-27.1,18.8-29.6S38,13.8,38,13.8L37.8,7z"/>
<path id="ghost-eyes" class="st2" d="M61.8,43.9c3-6.5,8.2-13,10.4-12.2c2.2,0.8,2.9,6.2-0.5,13.3S61.1,57.9,59.9,56.3
	C58.2,54,58.8,50.4,61.8,43.9z M35.6,44.2c-3.1-6.5-8.4-12.9-10.6-12.1c-2.2,0.8-2.8,6.3,0.7,13.3s10.8,12.7,11.9,11.2
	C39.3,54.3,38.7,50.7,35.6,44.2z"/>
</svg>
