<?xml version="1.0" encoding="utf-8"?>
<!-- Generator: Adobe Illustrator 21.1.0, SVG Export Plug-In . SVG Version: 6.00 Build 0)  -->
<svg version="1.1" id="glacier" xmlns="http://www.w3.org/2000/svg" xmlns:xlink="http://www.w3.org/1999/xlink" x="0px" y="0px"
	 viewBox="0 0 86 101.6" style="enable-background:new 0 0 86 101.6;" xml:space="preserve">
<style type="text/css">
	.st0{fill:#67BDE0;}
	.st1{fill:#89D6F6;}
	.st2{fill:#FFFFFF;}
</style>
<polygon id="ice-bg" class="st0" points="41.7,0 86,25.7 86,76.9 42.8,101.6 0,79.2 0,25.7 "/>
<polygon id="ice-main" class="st1" points="41.9,9.8 77.7,30.5 77.7,71.8 41.9,91.7 8.3,73.6 8.3,30.5 "/>
<path id="ice-details-white" class="st2" d="M45.4,20.7l20.3,11.9L45.4,45.6V20.7z M69.7,63.5l0-25.4L48.9,49.8L69.7,63.5z
	 M45.8,81.1l20.8-11.1L45.4,55.1L45.8,81.1z M39,20.7L18.7,32.5L39,45.6V20.7z M35.5,49.8L14.7,38.1l0,25.4L35.5,49.8z M39,55.1
	L17.8,69.9l20.8,11.1L39,55.1z"/>
</svg>
