<?xml version="1.0" encoding="utf-8"?>
<!-- Generator: Adobe Illustrator 21.1.0, SVG Export Plug-In . SVG Version: 6.00 Build 0)  -->
<svg version="1.1" id="rising" xmlns="http://www.w3.org/2000/svg" xmlns:xlink="http://www.w3.org/1999/xlink" x="0px" y="0px"
	 viewBox="0 0 89 93.5" style="enable-background:new 0 0 89 93.5;" xml:space="preserve">
<style type="text/css">
	.st0{fill:#6B6E70;}
	.st1{fill:#B6C1D9;}
	.st2{opacity:0.76;fill:#09100F;}
	.st3{fill:#E6466C;}
</style>
<polygon id="dragon-bg" class="st0" points="0,25.9 23.9,0 64.8,0 89,23.9 87.9,68.6 69.7,66.9 57,93.5 32.2,93.5 18.9,66.9 1.2,69 
	"/>
<polygon id="dragon-mid" class="st1" points="6.1,28.7 28.4,6.4 60.3,6.4 82.9,27.1 81.9,62.9 66.3,61.4 53.6,87.1 35.6,87.1 
	22.4,61.4 7.1,63.2 "/>
<polygon id="dragon-fore" class="st2" points="13.7,31.4 31.8,13.3 57,13.3 76.3,29.9 76.5,54.5 61.6,53.1 50.3,81.2 38.9,81.2 
	27.6,53.3 13.5,54.8 "/>
<path id="dragon-nostrils" class="st1" d="M54.7,70.3l-3-3.6H57L54.7,70.3z M34.3,70.3l3-3.6H32L34.3,70.3z"/>
<path id="dragon-eyes" class="st3" d="M37.8,48.8l-13-10.2l3.2-4l13,10.2L37.8,48.8z M52.1,48.8l13-10.2l-3.2-4l-13,10.2L52.1,48.8z
	"/>
<path id="dragon-horns" class="st3" d="M25,2.9h11v15.6l-5.5,6l-5.5-5V2.9z M52.6,19.2l5.5,4.9l5.5-5.9V2.9h-11V19.2z"/>
</svg>
