<?xml version="1.0" encoding="utf-8"?>
<!-- Generator: Adobe Illustrator 21.1.0, SVG Export Plug-In . SVG Version: 6.00 Build 0)  -->
<svg version="1.1" id="cascade" xmlns="http://www.w3.org/2000/svg" xmlns:xlink="http://www.w3.org/1999/xlink" x="0px" y="0px"
	 viewBox="0 0 69.7 107.5" style="enable-background:new 0 0 69.7 107.5;" xml:space="preserve">
<style type="text/css">
	.st0{fill:#67BDE0;}
	.st1{fill:#89D6F6;}
	.st2{fill:#CDEAFB;}
	.st3{fill:#77C8E5;}
</style>
<path id="droplet-bg" class="st0" d="M35.2,0c-1-0.1-2.3,0.7-15.2,25.8S-7,67.5,3.8,87.7s28.3,19.8,31.3,19.8s24.3-2.2,31.5-20.7
	s0.5-28.5-9.5-47.5S38.5,0.3,35.2,0z"/>
<path id="droplet-main" class="st1" d="M35,9.8C34.4,9.8,13.3,51.2,9,59.3s-5.3,26,7,35.7s29.2,8.8,39.8-1.3s9-26,4.7-35.3
	S36.5,10,35,9.8z"/>
<path id="droplet-highlight" class="st2" d="M32.2,45.2c-1.7,3.5-4.1,7.7-7.5,6c-4.4-2.1-2.5-7.7,0-11.3c2.5-3.7,4.9-4.7,7.5-3.8
	C35.3,37,33.8,41.7,32.2,45.2z M23.3,53.8c-4.2-2.1-5.8,0.3-9.5,7.5s-3.3,13.3-2,17.5c1.3,4.2,4.5,5,6.7,3.7s2.7-3.8,1.7-7.2
	c-1-3.3,1-10.2,3.2-13.3C25.5,58.8,26.7,55.5,23.3,53.8z"/>
<path id="droplet-shadow" class="st3" d="M55,68.1c-3.1-0.4-4.2,2.2-4.8,6.2s-2.5,8.5-6.5,11.3c-4,2.8-11.2-0.3-12.7,4
	c-1.5,4.3,7.8,9.1,16.5,3.8C59.4,86.3,63.8,69.4,55,68.1z"/>
</svg>
