<?xml version="1.0" encoding="utf-8"?>
<!-- Generator: Adobe Illustrator 21.1.0, SVG Export Plug-In . SVG Version: 6.00 Build 0)  -->
<svg version="1.1" id="thunder" xmlns="http://www.w3.org/2000/svg" xmlns:xlink="http://www.w3.org/1999/xlink" x="0px" y="0px"
	 viewBox="0 0 108.2 109" style="enable-background:new 0 0 108.2 109;" xml:space="preserve">
<style type="text/css">
	.st0{fill:#95512F;}
	.st1{fill:#F9B452;}
	.st2{fill:#DB7740;}
	.st3{fill:#D77F51;}
</style>
<polygon id="thunder-bg" class="st0" points="54,0 37.6,16.4 15.8,16.4 15.8,39 0,54.8 15.4,70.1 15.4,93 37.8,93 53.8,109 69.8,93 
	92.2,93 92.2,70.5 108.2,54.5 93.1,39.4 93.1,15.8 70,15.8 "/>
<polygon id="thunder-rays" class="st1" points="53.8,7.8 40.2,21.2 20.8,21.2 20.8,41.2 7.2,54.8 20.9,68.4 20.9,88 39.8,88 
	53.8,102 67.6,88.1 87.2,88.1 87.2,69.2 101.6,54.9 88.1,41.4 88.1,21.5 67.5,21.5 "/>
<polygon id="octagon-ring-1" class="st0" points="67.8,22.8 40.2,22.8 21.8,41.2 21.8,68 40.8,87 67.8,87 86.2,68.5 86.2,42 "/>
<polygon id="octagon-ring-2" class="st2" points="65.4,28.2 42.6,28.2 27.2,43.6 27.2,65.8 43,81.5 65.4,81.5 80.8,66.2 80.8,44.2 
	"/>
<polygon id="octagon-ring-3" class="st0" points="62.9,34 45.1,34 33,46 33,63.4 45.4,75.8 62.9,75.8 75,63.7 75,46.5 "/>
<polygon id="octagon-ring-4" class="st3" points="60.8,38.9 47.2,38.9 38,48.1 38,61.4 47.4,70.8 60.8,70.8 70,61.6 70,48.5 "/>
</svg>
