<?xml version="1.0" encoding="utf-8"?>
<!-- Generator: Adobe Illustrator 21.1.0, SVG Export Plug-In . SVG Version: 6.00 Build 0)  -->
<svg version="1.1" id="soul" xmlns="http://www.w3.org/2000/svg" xmlns:xlink="http://www.w3.org/1999/xlink" x="0px" y="0px"
	 viewBox="0 0 122.3 107.5" style="enable-background:new 0 0 122.3 107.5;" xml:space="preserve">
<style type="text/css">
	.st0{fill:#9E5479;}
	.st1{fill:#E69FC3;}
	.st2{fill:#DC8EBC;}
	.st3{fill:#E9B0D0;}
	.st4{fill:#D383B1;}
</style>
<path id="heart-bg" class="st0" d="M61.2,13.5c0,0-6.8-13.5-30-13.5S0,23,0,36.2S13,60,21,68s38,39.5,40.2,39.5s27.6-26.6,39.2-38.2
	s23-19.2,21.8-39.2S104,0,86.2,0S61.2,13.5,61.2,13.5z"/>
<path id="heart-main-left" class="st1" d="M63,22.2h-3.8c0,0-6.8-16-28.5-16s-29,29.5-20.2,41.5s34.2,35.2,40,41S61,99,61,99
	l6.5-6.5L63,22.2z"/>
<path id="heart-main-right" class="st2" d="M86.8,6.2c17.6,0,26,11,28.2,21.8s0.7,17.2-19.2,37.5C76.3,85.3,61,99,61,99V22.2h2
	C63,22.2,70.4,6.2,86.8,6.2z"/>
<path id="heart-highlight" class="st3" d="M19.9,17.8c-6.3,6-8.7,15.2-6.8,18.1c1.9,2.8,5.3,3.5,7.3,1.1s0.4-8.2,4.3-12.3
	c3.9-4,9.4-4.3,11.3-4.6c1.9-0.2,4.8-4.2,2.4-7S25.5,12.5,19.9,17.8z"/>
<path id="heart-shadow" class="st4" d="M100.2,47.8c-2.4-2.3-6.1-0.1-8.1,2S74.2,67.5,72.6,69.2C71,71,69.2,74,71.5,76.5
	s6.4-0.1,8.2-2s18.6-18.4,20.4-20.3C102,52.2,101.7,49.2,100.2,47.8z"/>
</svg>
