<?xml version="1.0" encoding="utf-8"?>
<!-- Generator: Adobe Illustrator 21.1.0, SVG Export Plug-In . SVG Version: 6.00 Build 0)  -->
<svg version="1.1" id="volcano" xmlns="http://www.w3.org/2000/svg" xmlns:xlink="http://www.w3.org/1999/xlink" x="0px" y="0px"
	 viewBox="0 0 92.9 108.4" style="enable-background:new 0 0 92.9 108.4;" xml:space="preserve">
<style type="text/css">
	.st0{fill:#96334F;}
	.st1{fill:#E6466C;}
	.st2{fill:#ECB43E;}
</style>
<polygon id="fire-bg" class="st0" points="46.5,0 28.9,29.9 26.6,28.3 21.2,19.8 2.2,41.5 7.8,52.8 0,62.4 9.2,87.4 46.5,108.4 
	83.7,87.2 92.9,62 85,52.7 90.7,41.2 71.5,20 65.9,29 63.6,30.1 "/>
<polygon id="fire-main" class="st1" points="46.2,12.1 31.2,37.4 22.2,32.6 20.7,29.8 8.8,42.4 14.5,53.8 6.5,63.2 14,84.1 
	46.2,101.8 78.5,83.6 86.3,63.2 78.3,53.6 84,41.9 72,29.1 70.5,32.2 61.7,37.4 "/>
<polygon id="fire-small-bg" class="st0" points="46.2,38.1 53.2,50.4 54.8,49.6 56.8,44.2 65,56.2 62.8,61.2 66.2,65.2 62.3,75.4 
	46.2,84.6 30.7,75.9 26.7,64.2 30,60.6 27.5,56.1 36.2,44.6 37.5,49.4 39.2,50.8 "/>
<polygon id="fire-small-yellow" class="st2" points="46.2,46.5 52.1,55.9 55.5,53.7 56.4,51.2 60,56.8 57.9,61.4 61,65.1 58,72.2 
	46.2,79 34.5,72.2 31.8,64.5 34.8,60.7 32.6,57.1 36.7,51.8 37.5,54.3 41,56.1 "/>
</svg>
