<?xml version="1.0" encoding="utf-8"?>
<!-- Generator: Adobe Illustrator 21.1.0, SVG Export Plug-In . SVG Version: 6.00 Build 0)  -->
<svg version="1.1" id="earth" xmlns="http://www.w3.org/2000/svg" xmlns:xlink="http://www.w3.org/1999/xlink" x="0px" y="0px"
	 viewBox="0 0 102.5 101.8" style="enable-background:new 0 0 102.5 101.8;" xml:space="preserve">
<style type="text/css">
	.st0{fill:#356152;}
	.st1{fill:#4CBD99;}
	.st2{fill:#F1EDBE;}
</style>
<path id="leaf-bg" class="st0" d="M26.6,34.8l7.7-7.7c0,0,2-1.2,3.5-1c1.5,0.2,1.5,2.5,2.2,1.5S39.1,23,40.6,21s7.3-7.7,8.7-7.7
	c1.3,0,2.2,2.2,2.7,1.8c0.5-0.3-0.5-6,1-7.8s7.2-7.5,8.7-7.3S68,5.7,68,5.7l4.8-5c0,0,1.2-1.5,4-0.7c2.8,0.8,17.3,5.7,18.3,6.2
	s7.7,20.3,7.3,21.5c-0.3,1.2-6.5,5.7-6.3,6.3c0.2,0.7,5.5,4.2,5.3,5.8c-0.2,1.7-0.8,2.8-2.8,5.2s-5.7,5.8-6.5,5.7
	c-0.8-0.2-4.3-1.3-5-0.7c-0.7,0.7,2.2,2.3,1.5,3.2c-0.7,0.8-5.3,6.2-7,7.8c-1.7,1.7-2.3,1.5-4,1.5c-1.7,0-3-0.3-2.3,1.3
	c0.7,1.7,0.7,2.5-1.5,4.5c-2.2,2-5.5,6.8-7.2,6.8c-1.7,0-22.8,0-22.8,0s-3.7,3.6-4.3,3.8c-1.1,0.3-3.5-0.8-4.3,0
	c-0.8,0.8-20.7,21.2-20.7,21.2s-2,3.7-6.2,0C4.1,96.5,0.8,93,0.8,93s-2.3-2.2,1-5.7s20.3-20,20.3-20s0.8-1.1,0.6-2.9
	c-0.2-1.8,0.7-3.4,2.5-4.6c1.8-1.2,1.8-1.2,1.8-6.2S26.5,38.5,26.6,34.8z"/>
<path id="leaf-leaves" class="st1" d="M33.6,51.7c0,0,0-14.1,0.3-14.9s2.5-2.8,3.1-2.5c0.6,0.3,2.2,3.5,3.9,4.1
	c1.7,0.6,4.3,0.8,5.1-2s-0.2-10.7,0-12c0.2-1.2,2.8-3.2,3.2-2.8c0.4,0.3,4,5.2,5.8,5s3.4-1.3,3.6-4.4c0.2-3.1-0.5-9.3,0-10.5
	s3.4-4.1,3.8-3s4,5.6,5.9,4.8c1.9-0.8,6.3-6.3,7.3-6.7s10.2,3.2,12,3.8s2.6,1,3.4,3.3c0.8,2.3,4.2,11.9,4.1,12.6
	c-0.2,0.7-4.8,4.4-5.8,5.8c-1,1.4-1.1,3.5,0.8,4.8c1.9,1.2,3.8,2.2,3.4,3.1C93.3,40.9,91,44,90.5,44s-9.4-0.2-11.4-0.1
	c-2,0.1-3.3,0-3.3,3.2c0,3.2,4.6,4.4,4.6,5.2s-2.6,4-3.6,4s-11.2-0.7-12.4,0.3c-1.1,1-1.5,3.4-0.6,4.6c0.9,1.2,4.3,2.9,3.9,4.3
	s-2.4,3.1-3.3,3.2c-0.9,0.2-14-0.4-14-0.4l7.7-8c0,0,1.3-1.4,1.3-4.1s-0.7-11.9-1.3-12.5c-0.7-0.6-13.1-2.1-14.3-1.4
	C42.5,43,33.6,51.7,33.6,51.7z"/>
<path id="leaf-stem" class="st2" d="M30.3,64.1l14.6-14.4c0,0,0.4-1,1.8-0.9s6.1,0.7,6.1,0.7l0.4,6.1c0,0,0.1,0.7-0.9,1.6
	S37.8,71.7,37.8,71.7s-0.9,0.8-2.2,0.7s-2.2-0.2-3.3,0.6S11.4,94.2,11.4,94.2l-3.4-3.8c0,0,19.6-19.6,20.6-20.7s0.9-1.4,0.7-2.2
	S29.1,65.3,30.3,64.1z"/>
</svg>
