<?xml version="1.0" encoding="utf-8"?>
<!-- Generator: Adobe Illustrator 21.1.0, SVG Export Plug-In . SVG Version: 6.00 Build 0)  -->
<svg version="1.1" id="zephyr" xmlns="http://www.w3.org/2000/svg" xmlns:xlink="http://www.w3.org/1999/xlink" x="0px" y="0px"
	 viewBox="0 0 94.8 107" style="enable-background:new 0 0 94.8 107;" xml:space="preserve">
<style type="text/css">
	.st0{fill:#888989;}
	.st1{fill:#E1E5CF;}
</style>
<polygon id="wings-bg" class="st0" points="46.9,0 94.8,28.7 94.8,78.3 52,107 53.3,47.5 46.9,43.7 40.7,47 42.3,107 0,80.7 0,29.2 
	"/>
<polygon id="wings-top" class="st1" points="47,8.8 11,29.6 38.8,42.4 47,38.3 54.2,42.4 81.8,28.5 "/>
<path id="wings-right" class="st1" d="M58.9,49.4l7.5-4.5v43.5L58,95.2L58.9,49.4z M70.9,44v42.8l6.9-5.8V39.7L70.9,44z M81.9,38.2
	v41.1l7.7-5.6V33.8L81.9,38.2z"/>
<path id="wings-left_1_" class="st1" d="M36.8,95.7l-8.6-6.9V44.7l7.7,4.5L36.8,95.7z M16.6,39.3v41.9l7.1,5.9V43.7L16.6,39.3z
	 M4.8,33.4v40.4l7.8,5.6V37.8L4.8,33.4z"/>
</svg>
