<?xml version="1.0" encoding="utf-8"?>
<!-- Generator: Adobe Illustrator 21.1.0, SVG Export Plug-In . SVG Version: 6.00 Build 0)  -->
<svg version="1.1" id="pokeball" xmlns="http://www.w3.org/2000/svg" xmlns:xlink="http://www.w3.org/1999/xlink" x="0px" y="0px"
	 viewBox="0 0 138.6 138.6" style="enable-background:new 0 0 138.6 138.6;" xml:space="preserve">
<style type="text/css">
	.st0{fill:#DF514F;}
	.st1{fill:#FFFFFF;}
	.st2{fill:#D8DBDA;}
</style>
<circle id="black-bg" cx="69.3" cy="69.3" r="69.3"/>
<path id="red-top" class="st0" d="M69.3,9.9C36.5,9.9,10,36.5,10,69.2h118.7C128.6,36.5,102.1,9.9,69.3,9.9z"/>
<path id="white-bottom" class="st1" d="M69.3,128.6c32.8,0,59.3-26.6,59.3-59.3H10C10,102,36.5,128.6,69.3,128.6z"/>
<path id="black-line" d="M10.1,64.6h118.4c0,0,0.1,2.8,0.1,4.6c0,1.7,0,2,0,2L10,71.1C10,71.1,10,67.9,10.1,64.6"/>
<circle id="black-mid-button" cx="70.7" cy="69.1" r="17.6"/>
<circle id="grey-mid-button" class="st2" cx="70.7" cy="69.1" r="12.4"/>
</svg>
